# Blender v2.82 (sub 7) OBJ File: ''
# www.blender.org
mtllib Assembly Peg Rod.mtl
o Assembly_Peg_Rod
v 0.000000 -0.500000 0.000000
v 0.000000 -0.500000 -0.120000
v 0.023410 -0.500000 -0.117690
v 0.000000 0.500000 0.000000
v 0.023410 0.500000 -0.117690
v 0.000000 0.500000 -0.120000
v 0.045920 -0.500000 -0.110870
v 0.045920 0.500000 -0.110870
v 0.066670 -0.500000 -0.099780
v 0.066670 0.500000 -0.099780
v 0.084850 -0.500000 -0.084850
v 0.084850 0.500000 -0.084850
v 0.099780 -0.500000 -0.066670
v 0.099780 0.500000 -0.066670
v 0.110870 -0.500000 -0.045920
v 0.110870 0.500000 -0.045920
v 0.117690 -0.500000 -0.023410
v 0.117690 0.500000 -0.023410
v 0.120000 -0.500000 -0.000000
v 0.120000 0.500000 -0.000000
v 0.117690 -0.500000 0.023410
v 0.117690 0.500000 0.023410
v 0.110870 -0.500000 0.045920
v 0.110870 0.500000 0.045920
v 0.099780 -0.500000 0.066670
v 0.099780 0.500000 0.066670
v 0.084850 -0.500000 0.084850
v 0.084850 0.500000 0.084850
v 0.066670 -0.500000 0.099780
v 0.066670 0.500000 0.099780
v 0.045920 -0.500000 0.110870
v 0.045920 0.500000 0.110870
v 0.023410 -0.500000 0.117690
v 0.023410 0.500000 0.117690
v -0.000000 -0.500000 0.120000
v -0.000000 0.500000 0.120000
v -0.023410 -0.500000 0.117690
v -0.023410 0.500000 0.117690
v -0.045920 -0.500000 0.110870
v -0.045920 0.500000 0.110870
v -0.066670 -0.500000 0.099780
v -0.066670 0.500000 0.099780
v -0.084850 -0.500000 0.084850
v -0.084850 0.500000 0.084850
v -0.099780 -0.500000 0.066670
v -0.099780 0.500000 0.066670
v -0.110870 -0.500000 0.045920
v -0.110870 0.500000 0.045920
v -0.117690 -0.500000 0.023410
v -0.117690 0.500000 0.023410
v -0.120000 -0.500000 -0.000000
v -0.120000 0.500000 -0.000000
v -0.117690 -0.500000 -0.023410
v -0.117690 0.500000 -0.023410
v -0.110870 -0.500000 -0.045920
v -0.110870 0.500000 -0.045920
v -0.099780 -0.500000 -0.066670
v -0.099780 0.500000 -0.066670
v -0.084850 -0.500000 -0.084850
v -0.084850 0.500000 -0.084850
v -0.066670 -0.500000 -0.099780
v -0.066670 0.500000 -0.099780
v -0.045920 -0.500000 -0.110870
v -0.045920 0.500000 -0.110870
v -0.023410 -0.500000 -0.117690
v -0.023410 0.500000 -0.117690
vn 0.0000 -1.0000 0.0000
vn 0.0000 1.0000 0.0000
vn 0.0980 0.0000 -0.9952
vn 0.2903 0.0000 -0.9569
vn 0.4714 0.0000 -0.8819
vn 0.6344 0.0000 -0.7730
vn 0.7730 0.0000 -0.6344
vn 0.8819 0.0000 -0.4714
vn 0.9569 0.0000 -0.2903
vn 0.9952 0.0000 -0.0980
vn 0.9952 0.0000 0.0980
vn 0.9569 0.0000 0.2903
vn 0.8819 0.0000 0.4714
vn 0.7730 0.0000 0.6344
vn 0.6344 0.0000 0.7730
vn 0.4714 0.0000 0.8819
vn 0.2903 0.0000 0.9569
vn 0.0980 0.0000 0.9952
vn -0.0980 0.0000 0.9952
vn -0.2903 0.0000 0.9569
vn -0.4714 0.0000 0.8819
vn -0.6344 0.0000 0.7730
vn -0.7730 0.0000 0.6344
vn -0.8819 0.0000 0.4714
vn -0.9569 0.0000 0.2903
vn -0.9952 0.0000 0.0980
vn -0.9952 0.0000 -0.0980
vn -0.9569 0.0000 -0.2903
vn -0.8819 0.0000 -0.4714
vn -0.7730 0.0000 -0.6344
vn -0.6344 0.0000 -0.7730
vn -0.4714 0.0000 -0.8819
vn -0.2903 0.0000 -0.9569
vn -0.0980 0.0000 -0.9952
usemtl None
s off
f 1//1 2//1 3//1
f 4//2 5//2 6//2
f 2//3 6//3 5//3
f 5//3 3//3 2//3
f 1//1 3//1 7//1
f 4//2 8//2 5//2
f 3//4 5//4 8//4
f 8//4 7//4 3//4
f 1//1 7//1 9//1
f 4//2 10//2 8//2
f 7//5 8//5 10//5
f 10//5 9//5 7//5
f 1//1 9//1 11//1
f 4//2 12//2 10//2
f 9//6 10//6 12//6
f 12//6 11//6 9//6
f 1//1 11//1 13//1
f 4//2 14//2 12//2
f 11//7 12//7 14//7
f 14//7 13//7 11//7
f 1//1 13//1 15//1
f 4//2 16//2 14//2
f 13//8 14//8 16//8
f 16//8 15//8 13//8
f 1//1 15//1 17//1
f 4//2 18//2 16//2
f 15//9 16//9 18//9
f 18//9 17//9 15//9
f 1//1 17//1 19//1
f 4//2 20//2 18//2
f 17//10 18//10 20//10
f 20//10 19//10 17//10
f 1//1 19//1 21//1
f 4//2 22//2 20//2
f 19//11 20//11 22//11
f 22//11 21//11 19//11
f 1//1 21//1 23//1
f 4//2 24//2 22//2
f 21//12 22//12 24//12
f 24//12 23//12 21//12
f 1//1 23//1 25//1
f 4//2 26//2 24//2
f 23//13 24//13 26//13
f 26//13 25//13 23//13
f 1//1 25//1 27//1
f 4//2 28//2 26//2
f 25//14 26//14 28//14
f 28//14 27//14 25//14
f 1//1 27//1 29//1
f 4//2 30//2 28//2
f 27//15 28//15 30//15
f 30//15 29//15 27//15
f 1//1 29//1 31//1
f 4//2 32//2 30//2
f 29//16 30//16 32//16
f 32//16 31//16 29//16
f 1//1 31//1 33//1
f 4//2 34//2 32//2
f 31//17 32//17 34//17
f 34//17 33//17 31//17
f 1//1 33//1 35//1
f 4//2 36//2 34//2
f 33//18 34//18 36//18
f 36//18 35//18 33//18
f 1//1 35//1 37//1
f 4//2 38//2 36//2
f 35//19 36//19 38//19
f 38//19 37//19 35//19
f 1//1 37//1 39//1
f 4//2 40//2 38//2
f 37//20 38//20 40//20
f 40//20 39//20 37//20
f 1//1 39//1 41//1
f 4//2 42//2 40//2
f 39//21 40//21 42//21
f 42//21 41//21 39//21
f 1//1 41//1 43//1
f 4//2 44//2 42//2
f 41//22 42//22 44//22
f 44//22 43//22 41//22
f 1//1 43//1 45//1
f 4//2 46//2 44//2
f 43//23 44//23 46//23
f 46//23 45//23 43//23
f 1//1 45//1 47//1
f 4//2 48//2 46//2
f 45//24 46//24 48//24
f 48//24 47//24 45//24
f 1//1 47//1 49//1
f 4//2 50//2 48//2
f 47//25 48//25 50//25
f 50//25 49//25 47//25
f 1//1 49//1 51//1
f 4//2 52//2 50//2
f 49//26 50//26 52//26
f 52//26 51//26 49//26
f 1//1 51//1 53//1
f 4//2 54//2 52//2
f 51//27 52//27 54//27
f 54//27 53//27 51//27
f 1//1 53//1 55//1
f 4//2 56//2 54//2
f 53//28 54//28 56//28
f 56//28 55//28 53//28
f 1//1 55//1 57//1
f 4//2 58//2 56//2
f 55//29 56//29 58//29
f 58//29 57//29 55//29
f 1//1 57//1 59//1
f 4//2 60//2 58//2
f 57//30 58//30 60//30
f 60//30 59//30 57//30
f 1//1 59//1 61//1
f 4//2 62//2 60//2
f 59//31 60//31 62//31
f 62//31 61//31 59//31
f 1//1 61//1 63//1
f 4//2 64//2 62//2
f 61//32 62//32 64//32
f 64//32 63//32 61//32
f 1//1 63//1 65//1
f 4//2 66//2 64//2
f 63//33 64//33 66//33
f 66//33 65//33 63//33
f 1//1 65//1 2//1
f 4//2 6//2 66//2
f 65//34 66//34 6//34
f 6//34 2//34 65//34
